<svg fill="#949494" height="24px" width="24px" version="1.1" id="Layer_1" xmlns="http://www.w3.org/2000/svg" xmlns:xlink="http://www.w3.org/1999/xlink" viewBox="0 0 512 512" xml:space="preserve" stroke="currentColor"><g id="SVGRepo_bgCarrier" stroke-width="0"></g><g id="SVGRepo_tracerCarrier" stroke-linecap="round" stroke-linejoin="round"></g><g id="SVGRepo_iconCarrier"> <g> <g> <path d="M435.574,59.858H76.426C34.285,59.858,0,94.143,0,136.284v171.023c0,4.427,3.589,8.017,8.017,8.017 c4.427,0,8.017-3.589,8.017-8.017V136.284c0-33.3,27.092-60.393,60.393-60.393h359.148c33.3,0,60.393,27.092,60.393,60.393 v239.432c0,33.3-27.092,60.393-60.393,60.393H76.426c-33.3,0-60.393-27.092-60.393-60.393v-34.205 c0-4.427-3.589-8.017-8.017-8.017c-4.427,0-8.017,3.589-8.017,8.017v34.205c0,42.141,34.285,76.426,76.426,76.426h359.148 c42.141,0,76.426-34.285,76.426-76.426V136.284C512,94.143,477.715,59.858,435.574,59.858z"></path> </g> </g> <g> <g> <path d="M362.982,249.278l-34.205-22.233c-3.712-2.412-8.677-1.359-11.091,2.353c-2.412,3.712-1.36,8.677,2.353,11.091 l23.864,15.511l-148.296,96.394V159.607l98.779,64.206c3.711,2.411,8.678,1.359,11.09-2.353c2.414-3.712,1.36-8.677-2.353-11.091 l-111.165-72.256c-5.24-3.407-12.384,0.491-12.384,6.721v222.33c0,6.226,7.142,10.131,12.385,6.721l171.023-111.165 C367.761,259.615,367.76,252.385,362.982,249.278z"></path> </g> </g> </g></svg>
